<?xml version="1.0" encoding="utf-8"?>

<!DOCTYPE svg PUBLIC "-//W3C//DTD SVG 1.1//EN" "http://www.w3.org/Graphics/SVG/1.1/DTD/svg11.dtd">
<!-- Uploaded to: SVG Repo, www.svgrepo.com, Generator: SVG Repo Mixer Tools -->
<svg height="800px" width="800px" version="1.1" id="_x32_" xmlns="http://www.w3.org/2000/svg" xmlns:xlink="http://www.w3.org/1999/xlink" 
	 viewBox="0 0 512 512"  xml:space="preserve">
<style type="text/css">
	.st0{fill:#009688;}
</style>
<g>
	<path class="st0" d="M403.623,242.703L226.443,8.728c-7.34-9.693-21.153-11.606-30.845-4.258
		c-9.701,7.34-11.607,21.16-4.266,30.861l23.85,31.484c-50.984,22.605-111.261,5.426-111.261,5.426
		c27.887,45.796,77.341,56.749,92.622,59.093c-28.271,33.774-45.388,77.234-45.396,124.674
		c0.023,66.872,33.936,125.966,85.396,160.969l-45.211,59.693c-7.341,9.701-5.435,23.52,4.266,30.869
		c9.692,7.333,23.505,5.427,30.845-4.258v-0.008l177.18-233.982C409.565,261.435,409.565,250.551,403.623,242.703z M196.543,307.384
		c-9.393,0-17.011-23.013-17.011-51.406c0-28.363,7.618-51.377,17.011-51.377c9.392,0,17.01,23.014,17.01,51.377
		C213.553,284.371,205.935,307.384,196.543,307.384z M263.13,381.866c-13.666-9.024-25.765-20.184-35.857-33.036
		c19.5-9.846,34.02-47.632,34.02-92.852c0-45.189-14.52-82.968-34.005-92.822c10.077-12.844,22.176-23.997,35.842-33.006
		l95.32,125.858L263.13,381.866z"/>
</g>
</svg>